<?xml version="1.0" encoding="UTF-8" standalone="no"?>
<svg
   xmlns:dc="http://purl.org/dc/elements/1.1/"
   xmlns:cc="http://creativecommons.org/ns#"
   xmlns:rdf="http://www.w3.org/1999/02/22-rdf-syntax-ns#"
   xmlns:svg="http://www.w3.org/2000/svg"
   xmlns="http://www.w3.org/2000/svg"
   xmlns:sodipodi="http://sodipodi.sourceforge.net/DTD/sodipodi-0.dtd"
   xmlns:inkscape="http://www.inkscape.org/namespaces/inkscape"
   width="210mm"
   height="297mm"
   viewBox="0 0 210 297"
   version="1.1"
   id="svg845"
   inkscape:version="1.0.2-2 (e86c870879, 2021-01-15)"
   sodipodi:docname="rowdykeys.svg">
  <defs
     id="defs839">
    <rect
       x="0"
       y="0"
       width="79.375"
       height="23.8125"
       id="rect851" />
  </defs>
  <sodipodi:namedview
     id="base"
     pagecolor="#ffffff"
     bordercolor="#666666"
     borderopacity="1.0"
     inkscape:pageopacity="0.0"
     inkscape:pageshadow="2"
     inkscape:zoom="1.4"
     inkscape:cx="150.72241"
     inkscape:cy="184.64286"
     inkscape:document-units="mm"
     inkscape:current-layer="layer1"
     inkscape:document-rotation="0"
     showgrid="true"
     inkscape:window-width="1267"
     inkscape:window-height="860"
     inkscape:window-x="112"
     inkscape:window-y="0"
     inkscape:window-maximized="0">
    <inkscape:grid
       type="xygrid"
       id="grid847" />
  </sodipodi:namedview>
  <metadata
     id="metadata842">
    <rdf:RDF>
      <cc:Work
         rdf:about="">
        <dc:format>image/svg+xml</dc:format>
        <dc:type
           rdf:resource="http://purl.org/dc/dcmitype/StillImage" />
        <dc:title></dc:title>
      </cc:Work>
    </rdf:RDF>
  </metadata>
  <g
     inkscape:label="Layer 1"
     inkscape:groupmode="layer"
     id="layer1">
    <path
       id="text849"
       style="font-style:normal;font-variant:normal;font-weight:bold;font-stretch:normal;font-size:10.5833px;line-height:1.25;font-family:'Microsoft YaHei';-inkscape-font-specification:'Microsoft YaHei Bold';white-space:pre;shape-inside:url(#rect851);fill:#ff6600;fill-opacity:1;stroke:none;stroke-width:3.77953"
       d="M 41.152344 0 C 36.608087 1.1842379e-15 32.94921 1.4908949 30.175781 4.4726562 C 27.415373 7.4413968 26.035156 11.295588 26.035156 16.035156 C 26.035156 17.825557 26.260637 19.479415 26.693359 21.009766 A 128.40755 15.11811 0 0 1 33.466797 20.056641 C 33.035728 18.759169 32.8125 17.305356 32.8125 15.683594 C 32.8125 12.701832 33.535161 10.273432 34.980469 8.3984375 C 36.438797 6.5234435 38.430998 5.5859375 40.957031 5.5859375 C 43.444002 5.5859375 45.371098 6.5039121 46.738281 8.3398438 C 48.105464 10.162755 48.789062 12.64975 48.789062 15.800781 C 48.789062 16.725099 48.713691 17.584806 48.582031 18.394531 A 128.40755 15.11811 0 0 1 55.404297 17.798828 C 55.488809 17.026604 55.546875 16.236853 55.546875 15.410156 C 55.546875 10.891941 54.225252 7.1940013 51.582031 4.3164062 C 48.951831 1.4388112 45.475247 0 41.152344 0 z M 55.404297 17.798828 C 55.00695 21.429549 53.691309 24.467947 51.425781 26.894531 C 48.691415 29.824209 45.104153 31.289062 40.664062 31.289062 C 36.328139 31.289062 32.805981 29.869783 30.097656 27.03125 C 28.471899 25.319516 27.343205 23.307985 26.693359 21.009766 A 128.40755 15.11811 0 0 0 19.527344 22.222656 L 24.960938 30.761719 L 17.539062 30.761719 L 13.197266 23.560547 A 128.40755 15.11811 0 0 0 6.4453125 25.507812 L 6.4453125 30.761719 L 0.078125 30.761719 A 128.40755 15.11811 0 0 0 128.4082 45.353516 A 128.40755 15.11811 0 0 0 256.81445 30.236328 A 128.40755 15.11811 0 0 0 255.06445 27.75 C 254.68203 28.210034 254.23819 28.627935 253.73047 29.003906 C 251.67318 30.527339 248.74999 31.289063 244.96094 31.289062 C 241.49741 31.289062 238.65885 30.729163 236.44531 29.609375 L 236.44531 23.144531 C 238.8802 25.162754 241.64715 26.171875 244.74609 26.171875 C 246.5039 26.171875 247.82552 25.872394 248.71094 25.273438 C 248.81677 25.20029 248.8951 25.117046 248.98828 25.039062 A 128.40755 15.11811 0 0 0 224.49219 20.207031 L 224.49219 30.761719 L 218.04688 30.761719 L 218.04688 20.078125 L 217.70117 19.373047 A 128.40755 15.11811 0 0 0 205.46875 18.144531 L 205.46875 18.164062 L 195.46875 18.164062 L 195.46875 25.488281 L 206.93359 25.488281 L 206.93359 30.761719 L 189.02344 30.761719 L 189.02344 16.908203 A 128.40755 15.11811 0 0 0 175.1582 16.15625 L 185.97656 30.761719 L 177.8125 30.761719 L 168.65234 17.539062 C 168.41797 17.200522 168.15104 16.673175 167.85156 15.957031 L 167.75391 15.957031 L 167.75391 30.761719 L 161.30859 30.761719 L 161.30859 15.623047 A 128.40755 15.11811 0 0 0 150.31641 15.339844 L 147.96875 19.960938 L 147.96875 30.761719 L 141.52344 30.761719 L 141.52344 20.078125 L 139.11328 15.169922 A 128.40755 15.11811 0 0 0 130.26953 15.121094 C 130.26976 15.166584 130.27344 15.208204 130.27344 15.253906 C 130.27344 19.928371 128.76952 23.684905 125.76172 26.523438 C 122.75392 29.348949 118.87368 30.761719 114.12109 30.761719 L 103.71094 30.761719 L 103.71094 15.400391 A 128.40755 15.11811 0 0 0 95.796875 15.613281 L 91.757812 30.761719 L 84.589844 30.761719 L 80.783203 16.197266 A 128.40755 15.11811 0 0 0 76.888672 16.388672 L 73.046875 30.761719 L 65.605469 30.761719 L 62.015625 17.294922 A 128.40755 15.11811 0 0 0 55.404297 17.798828 z M 62.015625 17.294922 A 128.40755 15.11811 0 0 1 68.197266 16.882812 L 64.609375 0.5078125 L 57.539062 0.5078125 L 62.015625 17.294922 z M 68.197266 16.882812 L 69.101562 21.015625 C 69.296874 21.91406 69.433594 23.046879 69.511719 24.414062 L 69.648438 24.414062 C 69.713541 23.346358 69.915366 22.180986 70.253906 20.917969 L 71.419922 16.6875 A 128.40755 15.11811 0 0 0 68.197266 16.882812 z M 71.419922 16.6875 A 128.40755 15.11811 0 0 1 76.888672 16.388672 L 78.320312 11.035156 C 78.554687 10.162763 78.73698 9.0494749 78.867188 7.6953125 L 78.945312 7.6953125 C 78.997396 8.854163 79.160157 9.9674513 79.433594 11.035156 L 80.783203 16.197266 A 128.40755 15.11811 0 0 1 86.556641 15.943359 L 82.734375 0.5078125 L 75.878906 0.5078125 L 71.419922 16.6875 z M 86.556641 15.943359 L 87.851562 21.171875 C 88.059895 21.992185 88.222657 23.0599 88.339844 24.375 L 88.4375 24.375 C 88.489583 23.242191 88.639324 22.135413 88.886719 21.054688 L 90.007812 15.808594 A 128.40755 15.11811 0 0 0 86.556641 15.943359 z M 90.007812 15.808594 A 128.40755 15.11811 0 0 1 95.796875 15.613281 L 99.824219 0.5078125 L 93.28125 0.5078125 L 90.007812 15.808594 z M 103.71094 15.400391 A 128.40755 15.11811 0 0 1 110.15625 15.271484 L 110.15625 5.78125 L 113.65234 5.78125 C 116.569 5.78125 118.93881 6.6276096 120.76172 8.3203125 C 122.53842 9.9574116 123.44324 12.230173 123.48828 15.128906 A 128.40755 15.11811 0 0 1 128.4082 15.117188 A 128.40755 15.11811 0 0 1 130.26953 15.121094 C 130.21982 5.3815889 124.85237 0.5078125 114.16016 0.5078125 L 103.71094 0.5078125 L 103.71094 15.400391 z M 123.48828 15.128906 A 128.40755 15.11811 0 0 0 110.15625 15.271484 L 110.15625 25.488281 L 113.67188 25.488281 C 116.73176 25.488281 119.13412 24.576817 120.87891 22.753906 C 122.62369 20.930995 123.49609 18.463532 123.49609 15.351562 C 123.49609 15.275309 123.48945 15.204306 123.48828 15.128906 z M 139.11328 15.169922 A 128.40755 15.11811 0 0 1 150.31641 15.339844 L 157.85156 0.5078125 L 151.01562 0.5078125 L 145.80078 12.128906 C 145.52734 12.766925 145.3125 13.54167 145.15625 14.453125 L 145.07812 14.453125 C 144.70052 13.098963 144.45964 12.304687 144.35547 12.070312 L 139.27734 0.5078125 L 131.91406 0.5078125 L 139.11328 15.169922 z M 161.30859 15.623047 A 128.40755 15.11811 0 0 1 175.1582 16.15625 L 174.25781 14.941406 L 185.07812 0.5078125 L 177.38281 0.5078125 L 168.71094 13.183594 C 168.42448 13.639321 168.13802 14.179689 167.85156 14.804688 L 167.75391 14.804688 L 167.75391 0.5078125 L 161.30859 0.5078125 L 161.30859 15.623047 z M 189.02344 16.908203 A 128.40755 15.11811 0 0 1 205.46875 18.144531 L 205.46875 12.910156 L 195.46875 12.910156 L 195.46875 5.78125 L 206.23047 5.78125 L 206.23047 0.5078125 L 189.02344 0.5078125 L 189.02344 16.908203 z M 217.70117 19.373047 A 128.40755 15.11811 0 0 1 224.49219 20.207031 L 224.49219 19.960938 L 234.375 0.5078125 L 227.53906 0.5078125 L 222.32422 12.128906 C 222.05078 12.766925 221.83594 13.54167 221.67969 14.453125 L 221.60156 14.453125 C 221.22396 13.098963 220.98307 12.304687 220.87891 12.070312 L 215.80078 0.5078125 L 208.4375 0.5078125 L 217.70117 19.373047 z M 248.98828 25.039062 A 128.40755 15.11811 0 0 1 255.06445 27.75 C 256.2316 26.345978 256.81641 24.550323 256.81641 22.363281 C 256.81641 20.384121 256.25 18.678381 255.11719 17.246094 C 253.9974 15.813807 251.93358 14.453121 248.92578 13.164062 C 246.36069 12.044274 244.7526 11.158852 244.10156 10.507812 C 243.45052 9.8437521 243.125 9.1210913 243.125 8.3398438 C 243.125 7.3632844 243.60026 6.5885398 244.55078 6.015625 C 245.5013 5.4296894 246.77084 5.1367188 248.35938 5.1367188 C 251.08072 5.1367188 253.45704 5.8268273 255.48828 7.2070312 L 255.48828 1.1523438 C 253.48308 0.38411703 251.00259 0 248.04688 0 C 244.51824 0 241.67968 0.78125497 239.53125 2.34375 C 237.39584 3.8932242 236.32812 6.0742277 236.32812 8.8867188 C 236.32812 12.714832 238.69142 15.631517 243.41797 17.636719 C 246.42577 18.886715 248.28125 19.876304 248.98438 20.605469 C 249.6875 21.334633 250.03906 22.109378 250.03906 22.929688 C 250.03906 23.766594 249.67468 24.464605 248.98828 25.039062 z M 0.078125 30.761719 A 128.40755 15.11811 0 0 1 0 30.236328 L 0 30.761719 L 0.078125 30.761719 z M 0 30.236328 A 128.40755 15.11811 0 0 1 6.4453125 25.507812 L 6.4453125 19.042969 L 8.3984375 19.042969 C 9.1015603 19.042969 9.765627 19.277345 10.390625 19.746094 C 11.015623 20.214842 11.816409 21.263026 12.792969 22.890625 L 13.197266 23.560547 A 128.40755 15.11811 0 0 1 19.527344 22.222656 L 19.257812 21.796875 C 17.56511 19.192717 16.022131 17.656249 14.628906 17.1875 L 14.628906 17.109375 C 16.738275 16.510419 18.391931 15.475256 19.589844 14.003906 C 20.800777 12.532557 21.40625 10.768223 21.40625 8.7109375 C 21.40625 3.2422049 17.805967 0.5078125 10.605469 0.5078125 L 0 0.5078125 L 0 30.236328 z M 48.582031 18.394531 A 128.40755 15.11811 0 0 0 33.466797 20.056641 C 33.817905 21.113441 34.304317 22.068497 34.941406 22.910156 C 36.360673 24.772129 38.3073 25.703125 40.78125 25.703125 C 43.307284 25.703125 45.273442 24.811192 46.679688 23.027344 C 47.655647 21.780284 48.283405 20.231122 48.582031 18.394531 z M 6.4453125 5.4101562 L 9.7265625 5.4101562 C 12.994781 5.4101562 14.628906 6.7773525 14.628906 9.5117188 C 14.628906 10.826819 14.166664 11.927086 13.242188 12.8125 C 12.330732 13.684893 11.119787 14.121094 9.609375 14.121094 L 6.4453125 14.121094 L 6.4453125 5.4101562 z "
       transform="scale(0.26458333)" />
  </g>
</svg>
